<svg width="40" height="40" viewBox="0 0 40 40" fill="none" xmlns="http://www.w3.org/2000/svg">
<path fill-rule="evenodd" clip-rule="evenodd" d="M21.0454 13.1636C21.0574 13.7313 19.9793 17.4471 18.648 21.421C17.3177 25.3948 15.8703 31.2008 15.4319 34.3231L14.6351 40L12.8643 34.3231C9.30183 22.9001 11.0255 8.53742 16.7411 2.02443C18.3097 0.237745 18.4658 0.452436 19.7101 6.13453C20.4318 9.43334 21.0334 12.5959 21.0454 13.1636ZM32.9931 9.60571C32.9931 14.0059 35.891 26.6726 38.1292 32.0575C39.1582 34.5326 40 36.7198 40 36.9169C40 37.6425 33.6748 35.3769 31.3895 33.8328C25.5128 29.862 24.8751 23.6566 29.1864 12.3895C31.7099 5.79288 32.9931 4.85464 32.9931 9.60571Z" fill="#001C64"/>
<path d="M34.0335 5.67693L27.2326 3.09651C21.2974 7.63805 15.4319 28.9007 14.6351 40L24.1414 36.642C22.6576 32.5133 30.1178 14.2783 34.0335 5.67693Z" fill="#55A3FF"/>
<path d="M14.1337 0H18.3865C19.1339 0 19.6219 0.806736 19.2875 1.49593C14.4072 11.5537 6.43731 29.6502 5.6579 37.7655C5.5698 38.6828 4.46163 39.3211 3.84347 38.6552C-2.57413 31.7425 0.426437 17.055 2.96031 10.0637C4.58687 5.5757 10.309 1.36188 13.8107 0.0566111C13.9149 0.0177808 14.0229 0 14.1337 0Z" fill="#55A3FF"/>
</svg>
